<svg width="69" height="69" viewBox="0 0 69 69" fill="none" xmlns="http://www.w3.org/2000/svg">
<g clip-path="url(#clip0)">
<path d="M54.1769 42.7459C52.7752 41.2864 51.0845 40.5061 49.2927 40.5061C47.5153 40.5061 45.8101 41.2719 44.3507 42.7314L39.7843 47.2833C39.4086 47.081 39.0329 46.8931 38.6717 46.7053C38.1515 46.4452 37.6601 46.1995 37.2411 45.9394C32.9638 43.2227 29.0766 39.6824 25.3484 35.1016C23.5421 32.8185 22.3283 30.8966 21.4468 28.9458C22.6318 27.862 23.73 26.7349 24.7993 25.6511C25.2039 25.2465 25.6085 24.8274 26.0132 24.4228C29.0477 21.3882 29.0477 17.4577 26.0132 14.4232L22.0682 10.4782C21.6202 10.0303 21.1578 9.56784 20.7243 9.10543C19.8573 8.2095 18.9469 7.28468 18.0077 6.41766C16.606 5.03043 14.9297 4.29346 13.1668 4.29346C11.4038 4.29346 9.6987 5.03043 8.25367 6.41766C8.23922 6.43211 8.23922 6.43211 8.22477 6.44656L3.31164 11.403C1.462 13.2527 0.407122 15.5069 0.175916 18.1225C-0.170892 22.342 1.07184 26.2725 2.02556 28.8446C4.36652 35.1594 7.86351 41.0118 13.0801 47.2833C19.4093 54.8408 27.0247 60.8088 35.7238 65.0139C39.0474 66.589 43.4836 68.453 48.4401 68.771C48.7436 68.7854 49.0615 68.7999 49.3505 68.7999C52.6885 68.7999 55.4919 67.6005 57.6883 65.2162C57.7028 65.1873 57.7317 65.1728 57.7461 65.1439C58.4976 64.2335 59.3646 63.4099 60.275 62.5284C60.8963 61.9359 61.5321 61.3146 62.1535 60.6643C63.5841 59.1759 64.3355 57.4419 64.3355 55.6645C64.3355 53.8726 63.5696 52.153 62.1101 50.708L54.1769 42.7459ZM59.3501 57.9621C59.3357 57.9621 59.3357 57.9765 59.3501 57.9621C58.7866 58.569 58.2086 59.1181 57.5872 59.725C56.6479 60.621 55.6942 61.5602 54.7983 62.6151C53.3388 64.1757 51.6192 64.9127 49.3649 64.9127C49.1482 64.9127 48.917 64.9127 48.7002 64.8983C44.4085 64.6237 40.4202 62.9475 37.4289 61.5169C29.25 57.5575 22.0682 51.9363 16.1002 44.8123C11.1726 38.8732 7.87796 33.382 5.69595 27.4863C4.35207 23.8881 3.86076 21.0848 4.07751 18.4404C4.22202 16.7497 4.87228 15.348 6.07166 14.1486L10.9992 9.22103C11.7073 8.55631 12.4587 8.19505 13.1957 8.19505C14.1061 8.19505 14.843 8.74417 15.3054 9.20658C15.3199 9.22103 15.3343 9.23548 15.3488 9.24993C16.2303 10.0736 17.0684 10.9262 17.9499 11.8365C18.3978 12.299 18.8602 12.7614 19.3226 13.2382L23.2676 17.1832C24.7993 18.7149 24.7993 20.1311 23.2676 21.6628C22.8485 22.0819 22.4439 22.5009 22.0249 22.9055C20.811 24.1482 19.655 25.3043 18.3978 26.4314C18.3689 26.4603 18.34 26.4748 18.3256 26.5037C17.0828 27.7464 17.314 28.9602 17.5741 29.7839C17.5886 29.8272 17.603 29.8706 17.6175 29.9139C18.6435 32.3994 20.0885 34.7404 22.285 37.5293L22.2994 37.5437C26.2877 42.4569 30.4928 46.2862 35.1313 49.2196C35.7238 49.5953 36.3307 49.8988 36.9087 50.1878C37.4289 50.4479 37.9202 50.6936 38.3393 50.9537C38.3971 50.9826 38.4549 51.0259 38.5127 51.0548C39.004 51.3005 39.4664 51.4161 39.9433 51.4161C41.1427 51.4161 41.8941 50.6647 42.1398 50.419L47.0818 45.477C47.5731 44.9857 48.3534 44.3932 49.2638 44.3932C50.1597 44.3932 50.8967 44.9568 51.3446 45.4481C51.3591 45.4625 51.3591 45.4625 51.3735 45.477L59.3357 53.4391C60.8241 54.9131 60.8241 56.4304 59.3501 57.9621Z" fill="white"/>
<path d="M37.0677 16.6197C40.8537 17.2555 44.2929 19.0473 47.0384 21.7929C49.784 24.5385 51.5614 27.9776 52.2116 31.7636C52.3706 32.7174 53.1943 33.3821 54.1335 33.3821C54.2492 33.3821 54.3503 33.3676 54.4659 33.3532C55.5352 33.1798 56.2433 32.1683 56.0699 31.0989C55.2896 26.5182 53.122 22.342 49.8129 19.0329C46.5038 15.7237 42.3276 13.5562 37.7468 12.7759C36.6775 12.6025 35.6804 13.3105 35.4926 14.3654C35.3047 15.4203 35.9983 16.4463 37.0677 16.6197Z" fill="white"/>
<path d="M68.4539 30.5353C67.1678 22.9923 63.613 16.1283 58.1508 10.6661C52.6885 5.20386 45.8246 1.64907 38.2815 0.362993C37.2267 0.175138 36.2296 0.897656 36.0417 1.95253C35.8683 3.02186 36.5764 4.01893 37.6457 4.20679C44.3796 5.34837 50.521 8.5419 55.4052 13.4117C60.2894 18.2959 63.4685 24.4373 64.6101 31.1712C64.769 32.1249 65.5927 32.7896 66.532 32.7896C66.6476 32.7896 66.7487 32.7752 66.8643 32.7607C67.9192 32.6017 68.6417 31.5902 68.4539 30.5353Z" fill="white"/>
</g>
<defs>
<clipPath id="clip0">
<rect width="68.4667" height="68.4667" fill="white" transform="translate(0.0667725 0.333252)"/>
</clipPath>
</defs>
</svg>
